<svg xmlns="http://www.w3.org/2000/svg" viewBox="0 0 1604 638" fill="#50353A"><g transform="translate(0,638) scale(0.1,-0.1)"><path d="M13978 6263 c-8 -10 -21 -41 -27 -69 -8 -31 -23 -62 -38 -75 l-25 -24 -1034 -3 -1034 -2 0 -2348 c0 -1382 -4 -2370 -9 -2403 -5 -31 -14 -75 -21 -97 -9 -37 -14 -42 -48 -47 -347 -57 -526 -290 -456 -595 8 -39 19 -72 23 -75 5 -2 23 7 42 21 179 132 513 101 987 -92 328 -134 644 -248 822 -298 113 -31 279 -57 396 -63 209 -10 381 22 551 102 334 158 516 421 501 725 -4 76 -10 108 -31 153 -58 128 -185 216 -324 225 -39 2 -83 2 -97 -2 -25 -6 -26 -8 -26 -95 0 -316 -247 -525 -600 -508 -215 10 -429 76 -995 305 -121 49 -264 104 -317 121 -54 18 -98 34 -98 36 0 4 259 195 344 253 45 30 83 56 85 58 11 10 -27 34 -70 43 -64 14 -95 35 -108 73 -8 21 -11 268 -11 768 l0 737 35 44 c118 150 289 226 530 236 151 6 305 -16 465 -66 78 -25 102 -37 135 -71 32 -33 46 -40 78 -40 27 0 38 4 34 13 -15 40 -142 434 -178 552 -23 77 -43 142 -45 143 -1 2 -16 -6 -33 -19 -22 -16 -32 -33 -37 -64 -3 -23 -9 -47 -13 -53 -5 -9 -137 -12 -486 -12 l-480 -1 -3 901 -2 900 859 0 c930 0 951 -1 1067 -54 121 -55 168 -114 162 -202 l-3 -56 29 6 c16 3 32 6 36 6 5 0 22 14 39 31 27 26 31 38 31 82 -1 59 -22 105 -114 250 -111 172 -428 622 -465 660 -4 4 -14 -1 -23 -10z"/> <path d="M372 6060 c-29 -29 -51 -85 -38 -98 4 -3 28 -5 54 -4 123 6 218 -129 242 -341 7 -62 10 -793 8 -2257 l-3 -2165 -68 -7 c-144 -14 -257 -64 -352 -157 -84 -82 -124 -182 -125 -311 0 -59 23 -196 34 -207 3 -3 20 7 38 21 81 61 120 71 288 71 225 0 389 -40 810 -197 450 -168 762 -264 984 -303 113 -19 320 -19 423 0 425 81 729 377 760 740 10 129 -35 254 -127 346 -80 80 -159 106 -307 101 l-43 -2 0 -67 c-1 -267 -161 -469 -415 -524 -83 -18 -273 -15 -369 6 -148 31 -330 93 -656 224 l-325 131 -3 2147 c-1 1182 0 2158 3 2170 8 34 44 62 101 79 28 8 59 23 68 33 15 17 13 20 -41 56 -32 21 -164 113 -293 205 -425 301 -490 340 -572 340 -38 0 -52 -5 -76 -30z"/> <path d="M1577 4923 c-4 -3 -7 -26 -7 -50 l0 -43 4930 0 4930 0 0 50 0 50 -4923 0 c-2708 0 -4927 -3 -4930 -7z"/> <path d="M1740 4371 c0 -34 6 -45 45 -79 l45 -40 0 -1185 0 -1185 -45 -36 c-39 -33 -45 -42 -45 -77 l0 -39 717 2 718 3 90 275 91 275 -34 3 c-29 3 -41 -4 -87 -47 l-54 -51 -443 2 -443 3 0 370 0 370 291 0 291 0 52 -47 c44 -40 60 -48 91 -48 l39 0 -50 148 c-27 81 -79 239 -114 351 -35 112 -67 206 -70 209 -10 11 -65 -52 -65 -74 0 -13 -4 -34 -10 -48 l-10 -26 -225 0 -225 0 2 273 3 272 442 3 443 2 55 -50 c43 -39 62 -50 89 -50 l34 0 -70 213 c-39 116 -80 241 -92 277 l-21 65 -718 3 -717 2 0 -39z"/> <path d="M3450 4372 c0 -42 11 -60 53 -86 32 -20 40 -36 61 -131 9 -38 36 -158 60 -265 24 -107 65 -285 90 -395 107 -476 198 -876 216 -955 47 -203 140 -619 140 -628 0 -6 -22 -32 -50 -58 -43 -41 -50 -53 -50 -86 l0 -38 495 0 495 0 0 37 c0 31 -7 43 -50 82 -27 25 -50 53 -50 62 0 13 166 756 230 1029 11 47 49 216 85 375 36 160 70 308 75 330 5 22 33 141 60 265 28 124 55 248 61 275 16 70 35 104 63 111 27 6 46 42 46 85 l0 29 -332 -2 -333 -3 -3 -33 c-3 -29 3 -40 44 -77 35 -33 47 -51 47 -72 0 -24 -101 -479 -253 -1148 -21 -93 -71 -314 -110 -490 -40 -176 -74 -322 -75 -324 -4 -4 -3 -11 -50 202 -19 86 -50 226 -69 310 -19 83 -55 243 -80 355 -62 273 -129 570 -177 782 -22 96 -47 211 -56 254 l-17 80 47 41 c40 35 48 48 50 81 l2 39 -332 3 -333 2 0 -38z"/> <path d="M5660 4370 c0 -34 6 -44 45 -77 l45 -37 0 -1187 0 -1187 -45 -36 c-39 -33 -45 -42 -45 -77 l0 -39 717 2 718 3 90 275 91 275 -34 3 c-29 3 -41 -4 -87 -47 l-54 -51 -440 0 c-242 0 -441 3 -443 8 -2 4 -2 173 0 375 l2 368 289 -3 288 -3 52 -47 c44 -40 60 -48 91 -48 l39 0 -50 148 c-27 81 -79 239 -114 351 -35 112 -67 206 -70 209 -10 11 -65 -52 -65 -74 0 -13 -4 -34 -10 -49 l-10 -25 -220 2 -220 3 -1 270 0 270 440 3 441 2 55 -50 c43 -39 62 -50 89 -50 l34 0 -69 208 c-38 114 -79 240 -91 280 l-22 72 -718 0 -718 0 0 -40z"/> <path d="M7400 4371 c0 -33 6 -44 45 -77 l45 -39 0 -1186 0 -1187 -45 -36 c-39 -33 -45 -42 -45 -77 l0 -39 325 0 325 0 0 39 c0 34 -6 44 -45 77 l-45 39 -2 808 c-2 444 0 807 3 807 3 0 44 -42 90 -92 46 -51 129 -142 184 -202 55 -60 147 -162 204 -225 57 -64 125 -138 150 -166 25 -27 70 -76 99 -108 l52 -59 0 -366 c0 -202 -3 -377 -6 -389 -3 -12 -24 -33 -45 -47 -36 -24 -39 -30 -39 -71 l0 -45 326 0 327 0 -6 42 c-6 42 -10 48 -72 91 l-25 18 0 1183 0 1184 38 33 c45 39 61 65 62 102 l0 27 -325 0 -325 0 0 -38 c0 -32 8 -46 45 -84 l45 -47 0 -453 c0 -441 0 -452 -19 -433 -37 40 -463 514 -703 782 -46 51 -65 81 -63 95 2 11 25 38 50 60 39 34 45 45 45 79 l0 39 -325 0 -325 0 0 -39z"/> <path d="M9602 4393 c-6 -10 -47 -130 -92 -268 -45 -137 -84 -256 -87 -262 -3 -9 8 -13 37 -13 42 0 51 7 107 74 l21 26 276 0 276 0 0 -1030 0 -1031 -24 -22 c-13 -12 -33 -29 -44 -37 -20 -15 -25 -32 -23 -77 l1 -23 325 0 325 0 0 37 c0 31 -8 43 -50 82 l-50 46 2 1025 3 1025 270 3 270 2 54 -50 c43 -39 62 -50 88 -50 18 0 33 3 33 8 0 4 -40 129 -88 277 l-88 270 -767 3 c-722 2 -767 1 -775 -15z"/> <path d="M14141 4137 c-50 -149 -91 -275 -91 -280 0 -4 16 -7 36 -7 30 0 44 8 84 50 l48 50 276 0 276 0 0 -1024 c0 -1013 0 -1024 -20 -1049 -11 -14 -29 -28 -39 -32 -22 -7 -41 -46 -41 -86 l0 -29 328 2 327 3 -1 39 c-2 40 -4 44 -69 89 l-25 18 0 1034 0 1035 270 0 270 0 55 -50 c45 -40 62 -50 91 -50 25 0 35 4 31 13 -2 6 -44 132 -93 280 l-88 267 -767 0 -767 0 -91 -273z"/> <path d="M7783 1435 c-48 -21 -57 -47 -60 -172 -3 -168 20 -223 93 -223 83 0 104 41 104 205 0 129 -13 179 -52 190 -48 14 -54 14 -85 0z m65 -47 c8 -8 12 -56 12 -150 0 -117 -2 -138 -16 -146 -24 -14 -51 -3 -58 21 -10 36 -7 234 4 261 10 28 38 34 58 14z"/> <path d="M7320 1413 c-29 -37 -25 -95 8 -99 18 -3 22 1 22 22 0 38 18 64 44 64 54 0 40 -70 -44 -227 -28 -50 -50 -101 -50 -112 0 -20 6 -21 90 -21 89 0 90 0 90 25 0 24 -3 25 -55 25 l-55 0 60 120 c67 133 73 168 35 205 -19 20 -34 25 -74 25 -42 0 -53 -4 -71 -27z"/> <path d="M8192 1397 c-23 -23 -42 -48 -42 -54 0 -24 22 -25 46 -2 l24 22 0 -136 c0 -133 0 -136 -22 -139 -15 -2 -24 -11 -26 -25 -3 -22 0 -23 72 -23 74 0 76 1 76 25 0 18 -5 25 -20 25 -19 0 -20 7 -20 175 l0 175 -23 0 c-14 0 -40 -17 -65 -43z"/> <path d="M8575 1415 c-33 -32 -35 -100 -4 -139 19 -24 19 -29 6 -39 -27 -22 -33 -47 -27 -104 8 -69 32 -93 95 -93 56 0 91 28 100 80 8 45 -9 105 -32 119 -14 7 -14 11 5 32 30 31 30 106 1 143 -17 22 -28 26 -70 26 -40 0 -55 -5 -74 -25z m103 -59 c5 -55 -5 -86 -26 -86 -28 0 -42 21 -42 61 0 56 9 71 39 67 22 -3 26 -8 29 -42z m-9 -135 c7 -5 15 -28 18 -52 9 -80 -52 -120 -78 -52 -6 16 -8 43 -5 62 7 46 33 62 65 42z"/> <path d="M3672 1265 l3 -45 1663 -3 1662 -2 0 48 0 47 -1666 0 -1665 0 3 -45z"/> <path d="M9038 1303 c-2 -5 -4 -25 -4 -45 l1 -38 1010 0 1010 -1 3 46 3 45 -1010 0 c-555 0 -1011 -3 -1013 -7z"/></g></svg>